<svg width="543" height="501" viewBox="0 0 543 501" fill="none" xmlns="http://www.w3.org/2000/svg">
<path d="M122.067 460.171C215.545 513.537 367.105 513.537 460.583 460.171C554.061 406.805 554.074 320.255 460.583 266.889C367.092 213.523 215.545 213.509 122.067 266.889C28.5895 320.269 28.5895 406.791 122.067 460.171Z" fill="#EBEBEB"/>
<path d="M488.078 327.76L474.443 319.28C474.443 319.28 471.1 288.032 473.32 263.837C476.451 229.819 496.983 188.932 521.466 198.514C545.948 208.097 510.222 242.821 502.294 271.652C494.367 300.483 488.078 327.76 488.078 327.76Z" fill="#02897A"/>
<path opacity="0.1" d="M488.078 327.76L474.443 319.28C474.443 319.28 471.1 288.032 473.32 263.837C476.451 229.819 496.983 188.932 521.466 198.514C545.948 208.097 510.222 242.821 502.294 271.652C494.367 300.483 488.078 327.76 488.078 327.76Z" fill="black"/>
<path d="M480.983 323.93C480.855 323.931 480.731 323.884 480.634 323.795C480.537 323.707 480.473 323.584 480.454 323.449C475.816 285.291 488.514 227.614 514.146 205.736C514.199 205.691 514.259 205.657 514.324 205.636C514.39 205.616 514.458 205.609 514.526 205.617C514.593 205.625 514.658 205.647 514.718 205.682C514.778 205.717 514.83 205.764 514.872 205.821C514.959 205.938 515 206.086 514.985 206.234C514.97 206.383 514.901 206.518 514.793 206.613C489.438 228.264 476.9 285.488 481.498 323.294C481.517 323.442 481.48 323.592 481.396 323.711C481.312 323.83 481.187 323.909 481.049 323.93H480.983Z" fill="white"/>
<path d="M495.357 333.795L485.659 327.788C485.659 327.788 484.008 306.349 493.838 280.302C502.386 257.689 523.618 238.807 534.294 242.765C544.97 246.722 544.705 254.82 539.5 263.314C534.294 271.808 502.624 292.06 495.357 333.795Z" fill="#02897A"/>
<path d="M489.346 334.346C489.277 334.342 489.21 334.324 489.147 334.292C489.085 334.26 489.03 334.215 488.984 334.16C488.939 334.104 488.904 334.04 488.882 333.97C488.86 333.9 488.852 333.826 488.857 333.752C492.054 280.387 517.29 254.142 532.458 250.142C532.595 250.107 532.738 250.131 532.859 250.207C532.98 250.284 533.068 250.407 533.105 250.552C533.137 250.696 533.115 250.848 533.044 250.975C532.972 251.102 532.857 251.194 532.722 251.23C516.748 255.47 492.913 283.877 489.927 333.823C489.922 333.899 489.903 333.973 489.871 334.04C489.839 334.108 489.794 334.168 489.74 334.216C489.686 334.265 489.623 334.302 489.555 334.324C489.488 334.346 489.416 334.354 489.346 334.346Z" fill="white"/>
<path d="M95.3522 331.915C95.3522 331.915 97.1623 300.582 80.1447 279.1C63.1271 257.618 40.9699 257.703 33.637 261.703C26.3041 265.702 21.3759 277.136 33.9937 285.319C46.6116 293.502 73.446 309.882 77.9118 324.495L95.3522 331.915Z" fill="#02897A"/>
<path opacity="0.1" d="M95.3522 331.915C95.3522 331.915 97.1623 300.582 80.1447 279.1C63.1271 257.618 40.9699 257.703 33.637 261.703C26.3041 265.702 21.3759 277.136 33.9937 285.319C46.6116 293.502 73.446 309.882 77.9118 324.495L95.3522 331.915Z" fill="black"/>
<path d="M87.3448 324.072C87.1813 324.069 87.0241 324.004 86.9026 323.887C86.781 323.77 86.7034 323.609 86.6842 323.436C83.1829 288.768 50.786 269.561 37.8775 267.385C37.7908 267.371 37.7074 267.339 37.6323 267.29C37.5571 267.242 37.4915 267.178 37.4394 267.103C37.3873 267.027 37.3495 266.942 37.3284 266.85C37.3072 266.759 37.303 266.665 37.316 266.572C37.329 266.479 37.359 266.39 37.4042 266.31C37.4494 266.229 37.509 266.159 37.5796 266.103C37.6501 266.048 37.7302 266.007 37.8154 265.985C37.9005 265.962 37.9889 265.957 38.0757 265.971C51.2881 268.19 84.4117 287.835 88.0054 323.28C88.0145 323.373 88.0064 323.467 87.9814 323.557C87.9563 323.646 87.915 323.729 87.8597 323.802C87.8044 323.874 87.7363 323.934 87.6593 323.978C87.5822 324.022 87.4978 324.049 87.4109 324.058L87.3448 324.072Z" fill="white"/>
<path d="M81.0426 316.114C76.775 305.713 71.9525 301.049 58.0794 303.536C44.2064 306.024 46.1883 305.642 29.2103 300.992C22.0492 299.042 14.0028 298.731 7.13236 302.038C1.33211 304.865 -3.00156 310.518 2.61371 316.538C8.92925 323.266 18.3497 325.569 25.3259 331.491C26.9084 332.688 28.1666 334.312 28.9725 336.197C30.809 341.2 27.136 346.839 28.2062 352.083C29.2764 357.326 34.4292 360.124 39.265 360.464C44.1007 360.803 48.8704 359.248 53.6929 358.655C58.5154 358.061 63.9325 358.655 67.2621 362.485C70.8294 366.541 70.9219 373.028 74.2382 377.338C79.2061 383.797 91.4144 385.592 98.0206 381.578L115.316 370.908C126.744 354.429 108.709 341.37 99.2625 328.58C94.6778 322.347 83.6058 322.375 81.0426 316.114Z" fill="#02897A"/>
<path d="M104.6 360.959C104.487 360.961 104.376 360.931 104.279 360.871C104.181 360.811 104.1 360.724 104.045 360.619C84.319 326.432 30.6105 309.133 11.611 307.72C11.4381 307.705 11.2774 307.619 11.1637 307.479C11.0499 307.338 10.9923 307.156 11.0033 306.971C11.0168 306.785 11.0974 306.611 11.228 306.487C11.3586 306.363 11.5291 306.299 11.7035 306.307C30.954 307.72 85.1778 325.273 105.168 359.913C105.257 360.075 105.283 360.267 105.241 360.449C105.199 360.631 105.092 360.788 104.944 360.888C104.836 360.939 104.718 360.963 104.6 360.959Z" fill="white"/>
<path d="M42.1186 344.847C42.0157 344.849 41.9138 344.825 41.8217 344.775C41.7296 344.726 41.6502 344.654 41.5901 344.564C41.485 344.414 41.4399 344.226 41.4647 344.04C41.4894 343.855 41.5821 343.687 41.7223 343.575C42.4093 343.024 58.7927 330.163 74.7533 329.908C74.8394 329.906 74.925 329.923 75.0051 329.957C75.0852 329.991 75.1581 330.042 75.2197 330.106C75.2812 330.171 75.33 330.248 75.3634 330.333C75.3968 330.417 75.4139 330.509 75.4139 330.601C75.4157 330.694 75.4003 330.786 75.3687 330.872C75.3371 330.959 75.2899 331.038 75.2298 331.105C75.1697 331.172 75.0978 331.225 75.0183 331.262C74.9388 331.3 74.8533 331.32 74.7665 331.322C59.2683 331.562 42.7132 344.578 42.5414 344.706C42.4221 344.808 42.2712 344.858 42.1186 344.847Z" fill="white"/>
<path d="M103.372 372.971C103.513 375.026 104.105 377.017 105.099 378.782C106.092 380.548 107.461 382.038 109.093 383.133L269.399 482.134C271.172 483.096 273.132 483.597 275.12 483.597C277.108 483.597 279.068 483.096 280.841 482.134L500.167 346.67C501.896 345.694 503.343 344.232 504.352 342.441C505.362 340.65 505.895 338.599 505.895 336.508C505.895 334.417 505.362 332.366 504.352 330.575C503.343 328.785 501.896 327.323 500.167 326.347L339.874 227.416C338.101 226.454 336.141 225.953 334.153 225.953C332.165 225.953 330.205 226.454 328.432 227.416L109.093 362.838C107.464 363.93 106.098 365.416 105.104 367.176C104.111 368.936 103.517 370.921 103.372 372.971Z" fill="#37474F"/>
<path d="M169.513 325.498L109.093 362.837C107.364 363.813 105.917 365.276 104.908 367.066C103.899 368.857 103.365 370.908 103.365 372.999C103.365 375.09 103.899 377.141 104.908 378.932C105.917 380.723 107.364 382.185 109.093 383.161L269.399 482.162C271.162 483.147 273.132 483.633 275.12 483.575V325.498H169.513Z" fill="#263238"/>
<path d="M97.9941 363.036C96.4018 361.875 95.0868 360.33 94.155 358.525C93.2233 356.721 92.7008 354.708 92.6299 352.648V148.017C92.7363 145.894 93.3098 143.827 94.304 141.985C95.2981 140.143 96.6846 138.578 98.3509 137.418L317.677 1.95382C319.333 0.843038 321.24 0.23577 323.194 0.197265C325.148 0.15876 327.074 0.690467 328.767 1.73527C330.46 2.78007 331.854 4.29847 332.801 6.12732C333.747 7.95616 334.21 10.0263 334.14 12.1154V216.76C334.031 218.883 333.457 220.949 332.463 222.791C331.469 224.632 330.083 226.198 328.419 227.36L109.093 362.838C107.387 363.8 105.493 364.319 103.565 364.354C101.637 364.388 99.7288 363.937 97.9941 363.036Z" fill="#455A64"/>
<path d="M119.477 157.529L94.3077 141.983C93.3053 143.817 92.7552 145.893 92.709 148.017V352.648C92.7799 354.708 93.3024 356.721 94.2341 358.525C95.1659 360.33 96.4809 361.875 98.0732 363.036C99.8082 363.93 101.715 364.375 103.641 364.336C105.567 364.297 107.457 363.774 109.158 362.809L134.183 347.362L119.477 157.529Z" fill="#263238"/>
<path d="M103.372 154.66V359.276C103.372 363.177 105.935 364.76 109.093 362.809L328.419 227.359C330.084 226.197 331.469 224.632 332.463 222.791C333.457 220.949 334.032 218.883 334.14 216.76V12.1292C334.14 8.22854 331.577 6.64565 328.419 8.596L109.093 144.06C107.427 145.22 106.04 146.785 105.046 148.627C104.052 150.469 103.478 152.536 103.372 154.66Z" fill="#37474F"/>
<path d="M109.092 369.904L269.398 468.834C271.171 469.796 273.131 470.298 275.119 470.298C277.107 470.298 279.067 469.796 280.84 468.834L500.166 333.37C503.337 331.42 503.337 328.254 500.166 326.304L339.873 227.373C338.1 226.411 336.14 225.91 334.152 225.91C332.164 225.91 330.204 226.411 328.431 227.373L109.092 362.837C105.921 364.759 105.921 367.925 109.092 369.904Z" fill="#455A64"/>
<path d="M112.172 155.409L325.354 23.7608C327.243 22.5878 328.789 23.5347 328.789 25.8808V203.009C328.723 204.282 328.377 205.522 327.78 206.626C327.183 207.731 326.352 208.67 325.354 209.368L112.172 341.016C110.269 342.189 108.736 341.243 108.736 338.897V161.769C108.8 160.494 109.144 159.254 109.741 158.148C110.338 157.043 111.171 156.104 112.172 155.409Z" fill="white"/>
<path d="M127.695 364.576L331.285 238.793C332.172 238.312 333.152 238.062 334.146 238.062C335.14 238.062 336.12 238.312 337.006 238.793L347.431 245.223C347.776 245.349 348.076 245.586 348.288 245.903C348.501 246.22 348.615 246.6 348.615 246.99C348.615 247.38 348.501 247.76 348.288 248.077C348.076 248.394 347.776 248.631 347.431 248.757L143.801 374.525C142.915 375.006 141.935 375.256 140.941 375.256C139.947 375.256 138.967 375.006 138.08 374.525L127.695 368.109C127.35 367.984 127.05 367.746 126.838 367.429C126.626 367.112 126.512 366.732 126.512 366.343C126.512 365.953 126.626 365.573 126.838 365.256C127.05 364.939 127.35 364.701 127.695 364.576Z" fill="#263238"/>
<path d="M154.543 381.21L358.12 255.427C359.009 254.946 359.991 254.696 360.987 254.696C361.983 254.696 362.965 254.946 363.854 255.427L427.895 294.999C428.24 295.125 428.54 295.362 428.752 295.679C428.964 295.996 429.079 296.376 429.079 296.766C429.079 297.156 428.964 297.536 428.752 297.853C428.54 298.17 428.24 298.407 427.895 298.533L224.543 424.061C223.654 424.542 222.672 424.792 221.676 424.792C220.68 424.792 219.697 424.542 218.808 424.061L154.543 384.673C154.215 384.54 153.932 384.303 153.732 383.993C153.533 383.684 153.426 383.317 153.426 382.941C153.426 382.566 153.533 382.199 153.732 381.889C153.932 381.58 154.215 381.343 154.543 381.21Z" fill="#263238"/>
<path d="M337.033 311.959L343.415 308.016C343.679 307.846 343.666 307.578 343.415 307.394L336.042 302.843C335.885 302.757 335.71 302.711 335.533 302.711C335.356 302.711 335.182 302.757 335.025 302.843L328.656 306.786C328.379 306.956 328.392 307.225 328.656 307.408L336.029 311.959C336.184 312.044 336.356 312.088 336.531 312.088C336.705 312.088 336.877 312.044 337.033 311.959ZM324.455 296.413L318.086 300.356C317.809 300.511 317.822 300.794 318.086 300.978L325.459 305.529C325.616 305.615 325.791 305.661 325.968 305.661C326.145 305.661 326.319 305.615 326.476 305.529L332.858 301.586C333.122 301.416 333.109 301.133 332.858 300.964L325.472 296.413C325.315 296.326 325.14 296.281 324.963 296.281C324.786 296.281 324.612 296.326 324.455 296.413ZM303.87 309.133L293.075 315.789C292.811 315.959 292.824 316.241 293.075 316.425L300.448 320.976C300.605 321.063 300.779 321.108 300.956 321.108C301.133 321.108 301.308 321.063 301.465 320.976L312.246 314.319C312.524 314.15 312.497 313.867 312.246 313.698L304.874 309.133C304.719 309.046 304.547 309.001 304.372 309.001C304.197 309.001 304.025 309.046 303.87 309.133ZM315.14 302.165L308.772 306.108C308.494 306.278 308.507 306.56 308.772 306.73L316.144 311.281C316.301 311.368 316.476 311.413 316.653 311.413C316.83 311.413 317.004 311.368 317.161 311.281L323.543 307.338C323.807 307.168 323.794 306.9 323.543 306.716L316.157 302.066C316 301.979 315.826 301.934 315.649 301.934C315.472 301.934 315.297 301.979 315.14 302.066V302.165ZM290.129 317.612L283.76 321.541C283.483 321.711 283.509 321.994 283.76 322.177L291.133 326.728C291.289 326.811 291.461 326.855 291.635 326.855C291.809 326.855 291.981 326.811 292.137 326.728L298.519 322.785C298.783 322.615 298.77 322.333 298.519 322.163L291.146 317.612C290.989 317.526 290.814 317.48 290.637 317.48C290.461 317.48 290.286 317.526 290.129 317.612ZM280.88 323.364L274.512 327.307C274.234 327.463 274.261 327.746 274.512 327.929L281.884 332.48C282.042 332.567 282.216 332.612 282.393 332.612C282.57 332.612 282.744 332.567 282.902 332.48L289.283 328.537C289.547 328.367 289.534 328.085 289.283 327.915L281.831 323.265C281.674 323.179 281.5 323.133 281.323 323.133C281.146 323.133 280.971 323.179 280.814 323.265L280.88 323.364ZM309.881 341.879L316.25 337.935C316.527 337.766 316.501 337.497 316.25 337.314L308.877 332.763C308.722 332.676 308.55 332.631 308.375 332.631C308.2 332.631 308.028 332.676 307.873 332.763L301.491 336.706C301.227 336.875 301.24 337.144 301.491 337.328L308.864 341.879C309.018 341.943 309.183 341.97 309.347 341.958C309.512 341.946 309.672 341.895 309.815 341.808L309.881 341.879ZM300.553 347.631L306.935 343.688C307.199 343.532 307.186 343.249 306.935 343.066L299.562 338.515C299.405 338.428 299.231 338.383 299.054 338.383C298.877 338.383 298.702 338.428 298.545 338.515L292.177 342.458C291.899 342.628 291.926 342.91 292.177 343.08L299.549 347.631C299.701 347.695 299.863 347.722 300.026 347.71C300.188 347.698 300.346 347.646 300.487 347.56L300.553 347.631ZM291.239 353.383L297.62 349.454C297.885 349.284 297.871 349.001 297.62 348.818L290.248 344.267C290.09 344.183 289.915 344.14 289.739 344.14C289.563 344.14 289.389 344.183 289.23 344.267L282.862 348.21C282.585 348.38 282.611 348.662 282.862 348.832L290.221 353.383C290.375 353.447 290.54 353.474 290.704 353.462C290.869 353.45 291.029 353.399 291.173 353.312L291.239 353.383ZM281.99 359.135L288.372 355.206C288.636 355.036 288.623 354.754 288.372 354.57L280.999 350.019C280.842 349.932 280.667 349.887 280.49 349.887C280.313 349.887 280.139 349.932 279.982 350.019L273.613 353.948C273.336 354.118 273.349 354.4 273.613 354.584L280.986 359.135C281.274 359.235 281.587 359.21 281.858 359.064L281.99 359.135ZM327.85 317.81L334.232 313.867C334.496 313.712 334.483 313.429 334.232 313.245L326.859 308.694C326.701 308.611 326.527 308.568 326.351 308.568C326.174 308.568 326 308.611 325.842 308.694L319.474 312.638C319.196 312.807 319.209 313.09 319.474 313.259L326.846 317.81C326.988 317.862 327.139 317.883 327.289 317.871C327.439 317.858 327.585 317.814 327.718 317.739L327.85 317.81ZM319.262 336.183L333.479 327.392C333.743 327.237 333.73 326.954 333.479 326.77L315.576 315.718C315.419 315.632 315.244 315.586 315.067 315.586C314.89 315.586 314.716 315.632 314.559 315.718L307.212 320.269C306.935 320.425 306.961 320.707 307.212 320.891L316.699 326.742C316.99 326.926 317.003 327.209 316.699 327.378L310.714 330.855C310.45 331.01 310.463 331.293 310.714 331.477L318.113 335.985C318.265 336.083 318.436 336.14 318.613 336.153C318.79 336.165 318.968 336.132 319.13 336.056L319.262 336.183ZM271.631 329.117L265.263 333.06C264.986 333.229 264.999 333.498 265.263 333.681L272.636 338.232C272.793 338.319 272.967 338.364 273.144 338.364C273.321 338.364 273.496 338.319 273.653 338.232L280.035 334.289C280.299 334.12 280.286 333.851 280.035 333.667L272.662 329.117C272.493 328.991 272.295 328.917 272.09 328.905C271.885 328.892 271.68 328.941 271.499 329.046L271.631 329.117ZM262.383 334.869L255.803 338.812C255.539 338.981 255.552 339.264 255.803 339.434L263.175 343.984C263.333 344.071 263.507 344.116 263.684 344.116C263.861 344.116 264.036 344.071 264.193 343.984L270.574 340.041C270.839 339.886 270.825 339.603 270.574 339.419L263.149 334.826C263.001 334.744 262.837 334.699 262.67 334.694C262.503 334.689 262.337 334.725 262.185 334.798L262.383 334.869ZM215.584 399.315C215.742 399.401 215.916 399.447 216.093 399.447C216.27 399.447 216.444 399.401 216.602 399.315L222.983 395.372C223.248 395.216 223.234 394.933 222.983 394.75L215.584 390.227C215.427 390.14 215.253 390.095 215.076 390.095C214.899 390.095 214.724 390.14 214.567 390.227L208.199 394.17C207.921 394.34 207.934 394.623 208.199 394.792L215.584 399.315ZM187.614 380.829L181.232 384.772C180.968 384.941 180.981 385.21 181.232 385.394L188.605 389.945C188.762 390.031 188.936 390.077 189.113 390.077C189.29 390.077 189.465 390.031 189.622 389.945L196.004 386.001C196.268 385.832 196.255 385.563 196.004 385.38L188.631 380.829C188.479 380.749 188.312 380.707 188.142 380.707C187.973 380.707 187.805 380.749 187.653 380.829H187.614ZM202.61 394.326C202.767 394.413 202.941 394.458 203.118 394.458C203.295 394.458 203.47 394.413 203.627 394.326L209.996 390.383C210.273 390.227 210.247 389.945 209.996 389.761L202.636 385.21C202.479 385.123 202.305 385.078 202.128 385.078C201.951 385.078 201.776 385.123 201.619 385.21L195.237 389.153C194.973 389.323 194.986 389.605 195.237 389.775L202.61 394.326ZM232.034 402.805L238.415 398.862C238.68 398.693 238.666 398.424 238.415 398.241L231.043 393.69C230.886 393.603 230.711 393.558 230.534 393.558C230.357 393.558 230.183 393.603 230.026 393.69L223.657 397.633C223.38 397.788 223.406 398.071 223.657 398.255L231.016 402.805C231.178 402.902 231.359 402.953 231.543 402.956C231.728 402.958 231.91 402.911 232.073 402.82L232.034 402.805ZM221.702 408.459C221.859 408.545 222.033 408.591 222.21 408.591C222.387 408.591 222.562 408.545 222.719 408.459L229.101 404.516C229.365 404.36 229.352 404.077 229.101 403.894L221.728 399.343C221.571 399.256 221.396 399.211 221.219 399.211C221.042 399.211 220.868 399.256 220.711 399.343L214.342 403.286C214.065 403.456 214.078 403.738 214.342 403.908L221.702 408.459ZM196.928 374.992L190.56 378.935C190.283 379.09 190.296 379.373 190.56 379.557L197.933 384.108C198.09 384.194 198.264 384.24 198.441 384.24C198.618 384.24 198.793 384.194 198.95 384.108L205.332 380.165C205.596 379.995 205.583 379.712 205.332 379.543L197.959 374.992C197.799 374.923 197.626 374.894 197.454 374.909C197.282 374.924 197.116 374.981 196.968 375.077L196.928 374.992ZM243.515 346.231L237.134 350.16C236.87 350.33 236.883 350.613 237.134 350.782L244.506 355.347C244.665 355.431 244.839 355.474 245.015 355.474C245.191 355.474 245.366 355.431 245.524 355.347L251.892 351.418C252.17 351.249 252.156 350.966 251.892 350.782L244.52 346.231C244.363 346.167 244.195 346.141 244.028 346.155C243.861 346.17 243.699 346.225 243.555 346.316L243.515 346.231ZM206.336 369.325L199.967 373.254C199.69 373.423 199.703 373.706 199.967 373.89L207.34 378.44C207.498 378.524 207.672 378.567 207.849 378.567C208.025 378.567 208.199 378.524 208.357 378.44L214.739 374.497C215.003 374.328 214.99 374.045 214.739 373.875L207.366 369.31C207.205 369.227 207.028 369.185 206.849 369.187C206.67 369.19 206.495 369.237 206.336 369.325ZM252.923 340.55L246.488 344.465C246.224 344.634 246.237 344.917 246.488 345.087L253.861 349.637C254.018 349.724 254.192 349.77 254.369 349.77C254.546 349.77 254.721 349.724 254.878 349.637L261.246 345.709C261.524 345.539 261.511 345.256 261.246 345.073L253.9 340.578C253.743 340.488 253.567 340.439 253.388 340.434C253.209 340.429 253.032 340.469 252.87 340.55H252.923ZM234.293 352.068L227.912 355.997C227.647 356.167 227.661 356.45 227.912 356.633L235.284 361.184C235.442 361.268 235.616 361.311 235.793 361.311C235.969 361.311 236.143 361.268 236.301 361.184L242.67 357.255C242.947 357.086 242.921 356.803 242.67 356.619L235.311 352.068C235.145 351.976 234.962 351.927 234.775 351.927C234.589 351.927 234.405 351.976 234.24 352.068H234.293ZM224.965 357.82L218.597 361.749C218.319 361.919 218.346 362.202 218.597 362.385L225.969 366.936C226.128 367.02 226.302 367.063 226.478 367.063C226.654 367.063 226.828 367.02 226.987 366.936L233.355 363.007C233.619 362.838 233.606 362.555 233.355 362.371L225.983 357.82C225.818 357.728 225.634 357.679 225.447 357.679C225.261 357.679 225.077 357.728 224.912 357.82H224.965ZM215.584 363.573L209.216 367.501C208.939 367.671 208.965 367.954 209.216 368.137L216.575 372.688C216.733 372.775 216.907 372.82 217.084 372.82C217.261 372.82 217.435 372.775 217.593 372.688L223.974 368.759C224.239 368.59 224.225 368.307 223.974 368.123L216.602 363.573C216.444 363.489 216.269 363.446 216.093 363.446C215.917 363.446 215.743 363.489 215.584 363.573ZM263.215 370.639L269.584 366.71C269.861 366.54 269.848 366.258 269.584 366.074L262.198 361.424C262.04 361.341 261.866 361.297 261.689 361.297C261.513 361.297 261.339 361.341 261.18 361.424L254.799 365.353C254.535 365.523 254.548 365.806 254.799 365.989L262.171 370.54C262.331 370.638 262.512 370.693 262.697 370.698C262.881 370.702 263.064 370.658 263.228 370.568L263.215 370.639ZM345.066 283.693L338.684 287.636C338.42 287.806 338.433 288.075 338.684 288.258L346.057 292.809C346.214 292.896 346.389 292.941 346.566 292.941C346.743 292.941 346.917 292.896 347.074 292.809L353.443 288.866C353.72 288.696 353.707 288.428 353.443 288.244L346.07 283.693C345.915 283.609 345.743 283.565 345.568 283.565C345.394 283.565 345.222 283.609 345.066 283.693ZM333.783 290.661L327.414 294.604C327.137 294.759 327.163 295.042 327.414 295.226L334.774 299.777C334.932 299.86 335.106 299.904 335.282 299.904C335.459 299.904 335.633 299.86 335.791 299.777L342.173 295.833C342.437 295.664 342.424 295.381 342.173 295.212L334.8 290.661C334.646 290.561 334.472 290.502 334.293 290.489C334.113 290.477 333.934 290.512 333.769 290.59L333.783 290.661ZM354.381 277.941L348.012 281.884C347.735 282.04 347.748 282.322 348.012 282.506L355.385 287.057C355.542 287.144 355.717 287.189 355.894 287.189C356.071 287.189 356.245 287.144 356.402 287.057L362.784 283.114C363.048 282.944 363.035 282.662 362.784 282.492L355.411 277.941C355.25 277.829 355.064 277.763 354.872 277.751C354.68 277.738 354.488 277.78 354.315 277.871L354.381 277.941ZM306.155 331.138L312.537 327.194C312.801 327.025 312.788 326.742 312.537 326.573L305.165 322.022C305.007 321.935 304.833 321.89 304.656 321.89C304.479 321.89 304.304 321.935 304.147 322.022L297.779 325.965C297.501 326.12 297.515 326.403 297.779 326.587L305.151 331.138C305.31 331.209 305.483 331.24 305.655 331.227C305.827 331.215 305.994 331.16 306.142 331.067L306.155 331.138ZM364.713 272.217C364.556 272.131 364.381 272.085 364.204 272.085C364.027 272.085 363.853 272.131 363.696 272.217L357.327 276.16C357.05 276.316 357.063 276.599 357.327 276.782L364.7 281.333C364.858 281.417 365.032 281.46 365.208 281.46C365.385 281.46 365.559 281.417 365.717 281.333L372.099 277.39C372.363 277.22 372.35 276.938 372.099 276.768L364.713 272.217ZM272.543 364.816L278.925 360.887C279.189 360.718 279.176 360.435 278.925 360.251L271.513 355.771C271.355 355.684 271.181 355.639 271.004 355.639C270.827 355.639 270.652 355.684 270.495 355.771L264.127 359.7C263.849 359.87 263.863 360.152 264.127 360.336L271.499 364.887C271.666 364.964 271.848 364.998 272.029 364.986C272.211 364.974 272.387 364.915 272.543 364.816ZM386.791 294.265L393.172 290.322C393.437 290.166 393.423 289.884 393.172 289.7L385.76 285.107C385.603 285.02 385.429 284.975 385.252 284.975C385.075 284.975 384.9 285.02 384.743 285.107L378.375 289.05C378.097 289.219 378.11 289.502 378.375 289.672L385.747 294.222C385.904 294.321 386.082 294.376 386.264 294.383C386.446 294.39 386.627 294.35 386.791 294.265ZM366.972 293.516L373.354 289.573C373.618 289.403 373.605 289.134 373.354 288.951L365.981 284.4C365.824 284.313 365.65 284.268 365.473 284.268C365.296 284.268 365.121 284.313 364.964 284.4L358.596 288.343C358.318 288.513 358.331 288.781 358.596 288.965L365.968 293.516C366.115 293.607 366.28 293.66 366.449 293.673C366.619 293.685 366.789 293.655 366.946 293.586L366.972 293.516ZM375.256 278.648C375.099 278.561 374.925 278.516 374.748 278.516C374.571 278.516 374.396 278.561 374.239 278.648L367.871 282.591C367.593 282.746 367.606 283.029 367.871 283.213L375.243 287.764C375.4 287.85 375.575 287.896 375.752 287.896C375.929 287.896 376.103 287.85 376.261 287.764L382.642 283.821C382.906 283.651 382.893 283.368 382.642 283.199L375.256 278.648ZM377.225 277.432L395.115 288.484C395.272 288.571 395.446 288.616 395.623 288.616C395.8 288.616 395.975 288.571 396.132 288.484L402.514 284.541C402.778 284.372 402.765 284.103 402.514 283.919L384.611 272.867C384.454 272.781 384.279 272.735 384.102 272.735C383.925 272.735 383.751 272.781 383.593 272.867L377.225 276.811C376.882 276.966 376.908 277.249 377.199 277.432H377.225ZM355.61 290.152L349.228 294.095C348.964 294.265 348.977 294.547 349.228 294.717L356.601 299.268C356.758 299.355 356.932 299.4 357.109 299.4C357.286 299.4 357.461 299.355 357.618 299.268L363.986 295.325C364.264 295.169 364.25 294.887 363.986 294.703L356.614 290.152C356.464 290.068 356.297 290.021 356.128 290.017C355.958 290.012 355.79 290.048 355.636 290.124L355.61 290.152ZM285.491 333.455L279.083 337.398C278.819 337.568 278.832 337.851 279.083 338.02L286.456 342.571C286.613 342.658 286.787 342.703 286.964 342.703C287.141 342.703 287.316 342.658 287.473 342.571L293.842 338.628C294.119 338.472 294.106 338.19 293.842 338.006L286.469 333.455C286.315 333.366 286.145 333.318 285.97 333.313C285.796 333.308 285.623 333.347 285.465 333.427L285.491 333.455ZM376.485 300.017C376.642 300.104 376.817 300.149 376.994 300.149C377.171 300.149 377.345 300.104 377.503 300.017L383.884 296.074C384.148 295.918 384.135 295.636 383.884 295.452L376.512 290.901C376.353 290.818 376.179 290.774 376.003 290.774C375.827 290.774 375.652 290.818 375.494 290.901L369.126 294.844C368.848 295.014 368.862 295.296 369.126 295.466L376.485 300.017ZM294.806 327.703L288.438 331.646C288.16 331.816 288.173 332.084 288.438 332.268L295.81 336.819C295.967 336.906 296.142 336.951 296.319 336.951C296.496 336.951 296.67 336.906 296.827 336.819L303.209 332.876C303.473 332.706 303.46 332.438 303.209 332.254L295.837 327.703C295.676 327.605 295.496 327.551 295.311 327.546C295.127 327.541 294.944 327.585 294.78 327.675L294.806 327.703ZM224.965 393.591C225.122 393.678 225.297 393.723 225.474 393.723C225.651 393.723 225.825 393.678 225.983 393.591L232.364 389.648C232.628 389.478 232.615 389.21 232.364 389.026L224.992 384.475C224.834 384.388 224.66 384.343 224.483 384.343C224.306 384.343 224.132 384.388 223.974 384.475L217.606 388.418C217.328 388.588 217.355 388.856 217.606 389.04L224.965 393.591ZM210.96 379.458L204.578 383.401C204.314 383.571 204.327 383.839 204.578 384.023L211.951 388.574C212.108 388.66 212.283 388.706 212.46 388.706C212.637 388.706 212.811 388.66 212.968 388.574L219.337 384.631C219.614 384.461 219.601 384.192 219.337 384.009L211.964 379.458C211.805 379.369 211.628 379.322 211.449 379.322C211.269 379.322 211.093 379.369 210.934 379.458H210.96ZM235.311 387.839L241.679 383.896C241.943 383.726 241.93 383.443 241.679 383.274L234.306 378.723C234.149 378.636 233.975 378.591 233.798 378.591C233.621 378.591 233.446 378.636 233.289 378.723L226.855 382.624C226.59 382.779 226.604 383.062 226.855 383.246L234.227 387.796C234.386 387.897 234.566 387.953 234.751 387.961C234.935 387.968 235.119 387.926 235.284 387.839H235.311ZM244.625 382.087L250.994 378.144C251.271 377.974 251.245 377.691 250.994 377.522L243.634 372.971C243.477 372.884 243.303 372.839 243.126 372.839C242.949 372.839 242.774 372.884 242.617 372.971L236.235 376.9C235.971 377.069 235.984 377.352 236.235 377.536L243.608 382.087C243.77 382.175 243.948 382.221 244.13 382.221C244.311 382.221 244.49 382.175 244.652 382.087H244.625ZM253.874 376.32L260.242 372.391C260.52 372.222 260.507 371.939 260.242 371.77L252.87 367.205C252.712 367.121 252.538 367.078 252.361 367.078C252.185 367.078 252.011 367.121 251.852 367.205L245.471 371.134C245.207 371.303 245.22 371.586 245.471 371.77L252.843 376.32C253.006 376.414 253.187 376.464 253.372 376.464C253.556 376.464 253.738 376.414 253.9 376.32H253.874ZM220.209 373.706L213.827 377.649C213.563 377.804 213.576 378.087 213.827 378.271L221.2 382.822C221.357 382.908 221.531 382.954 221.708 382.954C221.885 382.954 222.06 382.908 222.217 382.822L228.599 378.878C228.863 378.709 228.85 378.426 228.599 378.257L221.226 373.706C221.074 373.626 220.907 373.584 220.737 373.584C220.568 373.584 220.401 373.626 220.248 373.706H220.209ZM229.523 367.954L223.155 371.883C222.878 372.052 222.891 372.335 223.155 372.519L230.528 377.069C230.686 377.153 230.86 377.196 231.036 377.196C231.213 377.196 231.387 377.153 231.545 377.069L238.045 373.155C238.31 372.985 238.297 372.702 238.045 372.533L230.673 367.982C230.507 367.873 230.316 367.814 230.122 367.809C229.927 367.804 229.734 367.854 229.563 367.954H229.523ZM266.796 344.945L260.507 348.874C260.242 349.044 260.256 349.327 260.507 349.51L267.879 354.061C268.037 354.145 268.211 354.188 268.388 354.188C268.564 354.188 268.738 354.145 268.896 354.061L275.265 350.132C275.542 349.963 275.516 349.68 275.265 349.496L267.906 344.945C267.742 344.849 267.558 344.798 267.37 344.798C267.183 344.798 266.999 344.849 266.835 344.945H266.796ZM257.468 350.697L251.099 354.626C250.835 354.796 250.848 355.079 251.099 355.262L258.472 359.813C258.63 359.897 258.804 359.94 258.981 359.94C259.157 359.94 259.331 359.897 259.489 359.813L265.858 355.884C266.135 355.715 266.109 355.432 265.858 355.248L258.485 350.697C258.332 350.621 258.165 350.581 257.996 350.581C257.827 350.581 257.66 350.621 257.507 350.697H257.468ZM276.11 339.179L269.755 343.122C269.491 343.292 269.504 343.574 269.755 343.744L277.128 348.309C277.286 348.393 277.46 348.436 277.636 348.436C277.813 348.436 277.987 348.393 278.145 348.309L284.514 344.366C284.791 344.21 284.778 343.928 284.514 343.744L277.141 339.193C276.987 339.112 276.819 339.069 276.647 339.066C276.476 339.064 276.306 339.102 276.15 339.179H276.11ZM238.838 362.202L232.47 366.131C232.192 366.3 232.206 366.583 232.47 366.767L239.842 371.317C240.001 371.401 240.175 371.444 240.351 371.444C240.527 371.444 240.702 371.401 240.86 371.317L247.241 367.374C247.506 367.205 247.492 366.922 247.241 366.752L239.869 362.188C239.713 362.111 239.543 362.072 239.372 362.074C239.2 362.077 239.032 362.12 238.878 362.202H238.838ZM248.153 356.45L241.785 360.379C241.507 360.548 241.534 360.831 241.785 361.014L249.157 365.565C249.312 365.652 249.484 365.697 249.659 365.697C249.834 365.697 250.006 365.652 250.161 365.565L256.543 361.636C256.807 361.467 256.794 361.184 256.543 361L249.17 356.45C249.017 356.373 248.85 356.333 248.681 356.333C248.512 356.333 248.346 356.373 248.193 356.45H248.153ZM241.362 397.068L247.73 393.124C247.994 392.955 247.981 392.672 247.73 392.503L240.358 387.952C240.2 387.865 240.026 387.82 239.849 387.82C239.672 387.82 239.498 387.865 239.34 387.952L232.972 391.895C232.694 392.05 232.721 392.333 232.972 392.517L240.344 397.068C240.507 397.162 240.688 397.211 240.873 397.211C241.058 397.211 241.239 397.162 241.401 397.068H241.362ZM186.728 391.103L179.356 386.553C179.199 386.466 179.024 386.421 178.847 386.421C178.67 386.421 178.496 386.466 178.339 386.553L171.983 390.524C171.719 390.694 171.732 390.962 171.983 391.146L179.356 395.697C179.513 395.783 179.688 395.829 179.865 395.829C180.042 395.829 180.216 395.783 180.373 395.697L186.742 391.754C187.032 391.626 187.019 391.344 186.728 391.103ZM200.681 395.485L193.308 390.934C193.152 390.851 192.98 390.807 192.806 390.807C192.632 390.807 192.46 390.851 192.304 390.934L182.553 397.025C182.289 397.195 182.302 397.477 182.553 397.647L189.926 402.198C190.083 402.285 190.258 402.33 190.435 402.33C190.612 402.33 190.786 402.285 190.943 402.198L200.747 396.149C201.051 396.008 200.971 395.725 200.681 395.541V395.485ZM175.419 382.299L168.02 377.804C167.862 377.718 167.688 377.672 167.511 377.672C167.334 377.672 167.16 377.718 167.002 377.804L159.181 382.624C158.916 382.793 158.93 383.076 159.181 383.26L166.553 387.81C166.71 387.897 166.885 387.943 167.062 387.943C167.239 387.943 167.413 387.897 167.57 387.81L175.405 382.977C175.723 382.822 175.709 382.539 175.419 382.355V382.299ZM181.43 378.582C181.588 378.668 181.762 378.714 181.939 378.714C182.116 378.714 182.29 378.668 182.448 378.582L188.816 374.639C189.093 374.483 189.08 374.2 188.816 374.017L181.443 369.466C181.286 369.379 181.112 369.334 180.935 369.334C180.758 369.334 180.583 369.379 180.426 369.466L174.045 373.409C173.78 373.579 173.793 373.861 174.045 374.031L181.43 378.582ZM213.669 400.474L206.336 395.979C206.177 395.896 206.003 395.852 205.827 395.852C205.651 395.852 205.477 395.896 205.318 395.979L193.057 403.555C192.793 403.724 192.806 404.007 193.057 404.176L200.43 408.741C200.588 408.825 200.762 408.868 200.938 408.868C201.115 408.868 201.289 408.825 201.447 408.741L213.708 401.166C213.972 400.996 213.959 400.714 213.669 400.53V400.474ZM219.786 409.702L212.413 405.236C212.256 405.15 212.082 405.104 211.905 405.104C211.728 405.104 211.553 405.15 211.396 405.236L203.548 410.084C203.284 410.254 203.297 410.536 203.548 410.72L210.92 415.271C211.079 415.354 211.253 415.398 211.429 415.398C211.605 415.398 211.78 415.354 211.938 415.271L219.786 410.423C220.09 410.225 220.077 409.943 219.786 409.759V409.702ZM250.703 335.801C250.86 335.888 251.035 335.933 251.212 335.933C251.389 335.933 251.563 335.888 251.72 335.801L258.089 331.872C258.366 331.703 258.34 331.42 258.089 331.236L250.716 326.686C250.558 326.602 250.384 326.559 250.208 326.559C250.031 326.559 249.857 326.602 249.699 326.686L243.33 330.685C243.066 330.855 243.079 331.138 243.33 331.307L250.703 335.801ZM232.06 347.32C232.218 347.403 232.393 347.447 232.569 347.447C232.745 347.447 232.919 347.403 233.078 347.32L239.459 343.391C239.723 343.221 239.71 342.938 239.459 342.755L232.087 338.204C231.928 338.12 231.754 338.077 231.578 338.077C231.402 338.077 231.228 338.12 231.069 338.204L224.701 342.133C224.423 342.303 224.45 342.585 224.701 342.769L232.06 347.32ZM190.745 372.886C190.902 372.973 191.077 373.018 191.254 373.018C191.431 373.018 191.605 372.973 191.762 372.886L198.131 368.943C198.408 368.773 198.395 368.505 198.131 368.321L190.758 363.77C190.601 363.684 190.427 363.638 190.25 363.638C190.073 363.638 189.898 363.684 189.741 363.77L183.359 367.713C183.095 367.883 183.108 368.152 183.359 368.335L190.745 372.886ZM241.388 341.638C241.544 341.722 241.716 341.765 241.89 341.765C242.065 341.765 242.236 341.722 242.392 341.638L248.774 337.709C249.038 337.54 249.025 337.257 248.774 337.073L241.401 332.523C241.244 332.436 241.07 332.39 240.893 332.39C240.716 332.39 240.541 332.436 240.384 332.523L234.016 336.451C233.738 336.621 233.765 336.904 234.016 337.087L241.388 341.638ZM222.746 353.142C222.903 353.229 223.077 353.274 223.254 353.274C223.431 353.274 223.606 353.229 223.763 353.142L230.144 349.213C230.409 349.044 230.396 348.761 230.144 348.578L222.772 344.027C222.614 343.943 222.44 343.9 222.263 343.9C222.087 343.9 221.913 343.943 221.755 344.027L215.386 347.956C215.109 348.125 215.122 348.408 215.386 348.592L222.746 353.142ZM224.899 410.508C224.741 410.424 224.567 410.381 224.39 410.381C224.214 410.381 224.04 410.424 223.882 410.508L214.078 416.543C213.814 416.712 213.827 416.995 214.078 417.179L221.451 421.729C221.608 421.816 221.782 421.862 221.959 421.862C222.136 421.862 222.311 421.816 222.468 421.729L232.272 415.681C232.549 415.511 232.523 415.228 232.272 415.045L224.899 410.508ZM209.375 361.424C209.533 361.508 209.707 361.551 209.883 361.551C210.06 361.551 210.234 361.508 210.392 361.424L216.773 357.481C217.038 357.312 217.025 357.029 216.773 356.859L209.401 352.309C209.244 352.222 209.069 352.177 208.892 352.177C208.715 352.177 208.541 352.222 208.384 352.309L202.015 356.252C201.738 356.407 201.751 356.69 202.015 356.874L209.375 361.424ZM200.06 367.077C200.217 367.164 200.391 367.21 200.568 367.21C200.745 367.21 200.92 367.164 201.077 367.077L207.459 363.134C207.723 362.965 207.71 362.682 207.459 362.513L200.086 357.962C199.929 357.875 199.755 357.83 199.578 357.83C199.401 357.83 199.226 357.875 199.069 357.962L192.7 361.905C192.423 362.06 192.436 362.343 192.7 362.527L200.06 367.077ZM397.506 303.903C397.349 303.817 397.174 303.771 396.997 303.771C396.82 303.771 396.646 303.817 396.489 303.903L380.74 313.57C380.475 313.74 380.489 314.023 380.74 314.206L388.112 318.757C388.27 318.841 388.444 318.884 388.621 318.884C388.797 318.884 388.971 318.841 389.129 318.757L404.905 309.133C405.183 308.963 405.169 308.68 404.905 308.497L397.506 303.903ZM376.908 316.623C376.751 316.536 376.576 316.491 376.399 316.491C376.222 316.491 376.048 316.536 375.891 316.623L369.522 320.552C369.245 320.722 369.258 321.004 369.522 321.188L376.895 325.739C377.053 325.822 377.227 325.866 377.403 325.866C377.58 325.866 377.754 325.822 377.912 325.739L384.294 321.81C384.558 321.64 384.545 321.358 384.294 321.174L376.908 316.623ZM250.716 391.315L257.085 387.372C257.362 387.203 257.336 386.92 257.085 386.751L249.725 382.186C249.567 382.102 249.393 382.059 249.217 382.059C249.04 382.059 248.866 382.102 248.708 382.186L242.326 386.115C242.062 386.284 242.075 386.567 242.326 386.751L249.699 391.301C249.856 391.387 250.03 391.433 250.206 391.435C250.382 391.438 250.557 391.397 250.716 391.315ZM358.278 328.127C358.12 328.044 357.946 328 357.77 328C357.593 328 357.419 328.044 357.261 328.127L350.88 332.056C350.615 332.226 350.628 332.508 350.88 332.692L358.252 337.243C358.409 337.33 358.584 337.375 358.761 337.375C358.938 337.375 359.112 337.33 359.269 337.243L365.638 333.314C365.915 333.144 365.902 332.862 365.638 332.678L358.278 328.127ZM406.821 298.151C406.663 298.068 406.489 298.024 406.312 298.024C406.136 298.024 405.962 298.068 405.804 298.151L399.435 302.066C399.158 302.236 399.171 302.518 399.435 302.688L406.808 307.253C406.966 307.336 407.14 307.38 407.316 307.38C407.493 307.38 407.667 307.336 407.825 307.253L414.207 303.324C414.471 303.154 414.458 302.872 414.207 302.688L406.821 298.151ZM423.508 296.95L405.605 285.898C405.448 285.811 405.274 285.766 405.097 285.766C404.92 285.766 404.745 285.811 404.588 285.898L398.22 289.841C397.942 290.011 397.955 290.293 398.22 290.463L416.122 301.515C416.28 301.602 416.454 301.647 416.631 301.647C416.808 301.647 416.982 301.602 417.14 301.515L423.521 297.572C423.812 297.416 423.799 297.134 423.508 296.95ZM323.464 349.637C323.306 349.551 323.132 349.505 322.955 349.505C322.778 349.505 322.604 349.551 322.446 349.637L314.598 354.485C314.334 354.655 314.347 354.937 314.598 355.107L321.971 359.658C322.128 359.744 322.302 359.79 322.479 359.79C322.656 359.79 322.831 359.744 322.988 359.658L330.836 354.81C331.101 354.641 331.087 354.358 330.836 354.188L323.464 349.637ZM346.995 335.095C346.838 335.008 346.663 334.963 346.486 334.963C346.309 334.963 346.135 335.008 345.978 335.095L336.174 341.144C335.91 341.313 335.923 341.596 336.174 341.765L343.547 346.33C343.705 346.414 343.879 346.457 344.055 346.457C344.232 346.457 344.406 346.414 344.564 346.33L354.368 340.282C354.632 340.112 354.619 339.829 354.368 339.646L346.995 335.095ZM301.888 362.951C301.73 362.867 301.556 362.824 301.379 362.824C301.203 362.824 301.029 362.867 300.87 362.951L248.404 395.343C248.14 395.513 248.153 395.796 248.404 395.979L255.777 400.53C255.935 400.614 256.109 400.657 256.285 400.657C256.462 400.657 256.636 400.614 256.794 400.53L309.26 368.123C309.525 367.954 309.511 367.671 309.26 367.487L301.888 362.951ZM246.475 397.181C246.318 397.094 246.143 397.049 245.966 397.049C245.789 397.049 245.615 397.094 245.458 397.181L237.623 402.028C237.345 402.198 237.358 402.48 237.623 402.65L244.995 407.201C245.152 407.288 245.327 407.333 245.504 407.333C245.681 407.333 245.855 407.288 246.013 407.201L253.9 402.41C254.165 402.24 254.151 401.958 253.9 401.788L246.475 397.181ZM312.669 356.294C312.511 356.211 312.337 356.167 312.161 356.167C311.984 356.167 311.81 356.211 311.652 356.294L303.817 361.142C303.539 361.311 303.553 361.594 303.817 361.778L311.189 366.328C311.348 366.412 311.522 366.455 311.698 366.455C311.875 366.455 312.049 366.412 312.207 366.328L320.055 361.481C320.332 361.325 320.306 361.043 320.055 360.859L312.669 356.294ZM235.694 403.823C235.535 403.74 235.361 403.696 235.185 403.696C235.009 403.696 234.835 403.74 234.676 403.823L226.828 408.671C226.564 408.84 226.577 409.123 226.828 409.307L234.201 413.857C234.359 413.941 234.533 413.984 234.709 413.984C234.886 413.984 235.06 413.941 235.218 413.857L243.053 409.024C243.33 408.854 243.317 408.572 243.053 408.388L235.694 403.823ZM334.245 342.953C334.087 342.869 333.913 342.826 333.736 342.826C333.56 342.826 333.386 342.869 333.228 342.953L325.393 347.786C325.115 347.956 325.128 348.238 325.393 348.422L332.765 352.973C332.923 353.056 333.098 353.1 333.274 353.1C333.45 353.1 333.624 353.056 333.783 352.973L341.631 348.125C341.908 347.956 341.882 347.673 341.631 347.489L334.245 342.953ZM367.593 322.361C367.436 322.274 367.262 322.229 367.085 322.229C366.908 322.229 366.733 322.274 366.576 322.361L360.207 326.29C359.93 326.46 359.943 326.742 360.207 326.926L367.58 331.477C367.738 331.56 367.912 331.604 368.089 331.604C368.265 331.604 368.439 331.56 368.597 331.477L374.979 327.548C375.243 327.378 375.23 327.095 374.979 326.912L367.593 322.361ZM388.006 306.504L394.375 302.575C394.652 302.405 394.639 302.123 394.375 301.939L387.002 297.388C386.844 297.305 386.67 297.261 386.494 297.261C386.317 297.261 386.143 297.305 385.985 297.388L379.603 301.331C379.339 301.501 379.352 301.783 379.603 301.953L386.976 306.518C387.136 306.604 387.312 306.648 387.491 306.648C387.67 306.648 387.846 306.604 388.006 306.518V306.504ZM346.387 306.306L352.769 302.363C353.033 302.193 353.02 301.911 352.769 301.741L345.396 297.19C345.239 297.103 345.065 297.058 344.888 297.058C344.711 297.058 344.536 297.103 344.379 297.19L338.011 301.133C337.733 301.303 337.76 301.571 338.011 301.755L345.37 306.306C345.527 306.393 345.702 306.438 345.879 306.438C346.056 306.438 346.23 306.393 346.387 306.306ZM325.247 345.355L343.877 333.851C344.141 333.681 344.128 333.399 343.877 333.215L336.504 328.664C336.346 328.581 336.172 328.537 335.996 328.537C335.819 328.537 335.645 328.581 335.487 328.664L316.858 340.183C316.593 340.338 316.606 340.621 316.858 340.804L324.23 345.355C324.393 345.431 324.57 345.465 324.747 345.452C324.924 345.44 325.095 345.382 325.247 345.285V345.355ZM377.674 312.327C377.832 312.41 378.007 312.454 378.183 312.454C378.359 312.454 378.533 312.41 378.692 312.327L385.06 308.398C385.337 308.228 385.324 307.945 385.06 307.762L377.688 303.211C377.53 303.124 377.356 303.079 377.179 303.079C377.002 303.079 376.827 303.124 376.67 303.211L370.289 307.14C370.024 307.309 370.038 307.592 370.289 307.776L377.674 312.327ZM368.161 305.84L374.53 301.911C374.807 301.741 374.794 301.458 374.53 301.275L367.157 296.724C366.999 296.64 366.825 296.597 366.649 296.597C366.472 296.597 366.298 296.64 366.14 296.724L359.758 300.667C359.494 300.837 359.507 301.119 359.758 301.289L367.131 305.854C367.297 305.927 367.477 305.957 367.656 305.942C367.834 305.927 368.008 305.868 368.161 305.769V305.84ZM315.933 351.065L322.301 347.122C322.579 346.952 322.552 346.684 322.301 346.5L314.929 341.949C314.771 341.862 314.597 341.817 314.42 341.817C314.243 341.817 314.068 341.862 313.911 341.949L307.503 345.878C307.226 346.048 307.252 346.316 307.503 346.5L314.876 351.051C315.047 351.155 315.242 351.209 315.439 351.207C315.636 351.204 315.83 351.146 315.999 351.037L315.933 351.065ZM357.076 325.004C357.234 325.087 357.408 325.131 357.585 325.131C357.761 325.131 357.935 325.087 358.093 325.004L364.475 321.075C364.739 320.905 364.726 320.623 364.475 320.439L357.103 315.888C356.944 315.805 356.77 315.761 356.594 315.761C356.417 315.761 356.243 315.805 356.085 315.888L349.717 319.831C349.439 320.001 349.453 320.283 349.717 320.453L357.076 325.004ZM269.346 379.797L275.714 375.868C275.992 375.699 275.978 375.416 275.714 375.232L268.342 370.681C268.183 370.598 268.009 370.554 267.833 370.554C267.656 370.554 267.482 370.598 267.324 370.681L260.943 374.61C260.678 374.78 260.692 375.063 260.943 375.246L268.315 379.797C268.475 379.883 268.651 379.928 268.83 379.928C269.009 379.928 269.186 379.883 269.346 379.797ZM278.66 374.045L285.042 370.116C285.306 369.946 285.293 369.664 285.042 369.48L277.683 364.929C277.525 364.843 277.351 364.797 277.174 364.797C276.997 364.797 276.823 364.843 276.665 364.929L270.284 368.858C270.02 369.028 270.033 369.31 270.284 369.494L277.656 374.045C277.813 374.126 277.984 374.168 278.158 374.168C278.332 374.168 278.504 374.126 278.66 374.045ZM260.031 385.549L266.399 381.62C266.677 381.451 266.664 381.168 266.399 380.984L259.04 376.433C258.882 376.35 258.708 376.307 258.531 376.307C258.355 376.307 258.181 376.35 258.023 376.433L251.641 380.362C251.377 380.532 251.39 380.815 251.641 380.998L259.014 385.549C259.171 385.636 259.345 385.681 259.522 385.681C259.699 385.681 259.874 385.636 260.031 385.549ZM297.29 362.541L303.672 358.612C303.936 358.442 303.923 358.16 303.672 357.976L296.299 353.425C296.141 353.342 295.967 353.298 295.79 353.298C295.614 353.298 295.44 353.342 295.282 353.425L288.913 357.368C288.636 357.538 288.649 357.82 288.913 357.99L296.286 362.541C296.441 362.625 296.613 362.669 296.788 362.669C296.962 362.669 297.134 362.625 297.29 362.541ZM288.041 368.293L294.423 364.364C294.687 364.194 294.674 363.912 294.423 363.728L286.931 359.177C286.774 359.09 286.6 359.045 286.423 359.045C286.246 359.045 286.071 359.09 285.914 359.177L279.546 363.106C279.268 363.276 279.281 363.558 279.546 363.728L286.918 368.293C287.082 368.383 287.263 368.431 287.447 368.431C287.631 368.431 287.812 368.383 287.975 368.293H288.041ZM306.671 356.789L313.052 352.846C313.317 352.69 313.303 352.408 313.052 352.224L305.68 347.673C305.523 347.586 305.348 347.541 305.171 347.541C304.994 347.541 304.82 347.586 304.663 347.673L298.188 351.531C297.911 351.701 297.937 351.984 298.188 352.153L305.548 356.704C305.703 356.811 305.882 356.875 306.066 356.89C306.251 356.905 306.436 356.87 306.605 356.789H306.671ZM349.294 271.666C349.451 271.753 349.626 271.798 349.803 271.798C349.98 271.798 350.154 271.753 350.311 271.666L356.693 267.723C356.957 267.568 356.944 267.285 356.693 267.101L354.738 265.886C354.579 265.802 354.405 265.759 354.229 265.759C354.052 265.759 353.878 265.802 353.72 265.886L347.339 269.815C347.074 269.984 347.088 270.267 347.339 270.451L349.294 271.666ZM303.46 303.324C303.617 303.411 303.792 303.456 303.969 303.456C304.146 303.456 304.32 303.411 304.478 303.324L310.846 299.395C311.123 299.225 311.11 298.943 310.846 298.759L303.473 294.208C303.315 294.125 303.141 294.081 302.965 294.081C302.788 294.081 302.614 294.125 302.456 294.208L296.074 298.137C295.81 298.307 295.823 298.589 296.074 298.773L303.46 303.324ZM322.09 291.82C322.248 291.903 322.422 291.947 322.598 291.947C322.775 291.947 322.949 291.903 323.107 291.82L329.489 287.891C329.753 287.721 329.74 287.439 329.489 287.255L322.116 282.704C321.959 282.617 321.784 282.572 321.607 282.572C321.43 282.572 321.256 282.617 321.099 282.704L314.677 286.633C314.4 286.803 314.413 287.085 314.677 287.269L322.09 291.82ZM292.084 310.348C292.242 310.431 292.417 310.475 292.593 310.475C292.769 310.475 292.943 310.431 293.102 310.348L299.47 306.405C299.747 306.235 299.734 305.953 299.47 305.783L292.097 301.218C291.939 301.135 291.765 301.091 291.589 301.091C291.412 301.091 291.238 301.135 291.08 301.218L284.699 305.147C284.434 305.317 284.447 305.599 284.699 305.783L292.084 310.348ZM312.775 297.628C312.933 297.712 313.107 297.755 313.284 297.755C313.46 297.755 313.634 297.712 313.792 297.628L320.174 293.699C320.438 293.53 320.425 293.247 320.174 293.063L312.801 288.513C312.643 288.429 312.469 288.386 312.293 288.386C312.116 288.386 311.942 288.429 311.784 288.513L305.416 292.442C305.138 292.611 305.151 292.894 305.416 293.078L312.775 297.628ZM273.389 321.852C273.546 321.939 273.72 321.984 273.897 321.984C274.074 321.984 274.249 321.939 274.406 321.852L280.774 317.909C281.052 317.739 281.025 317.457 280.774 317.287L273.415 312.736C273.258 312.65 273.083 312.604 272.906 312.604C272.729 312.604 272.555 312.65 272.398 312.736L266.016 316.68C265.752 316.835 265.765 317.118 266.016 317.301L273.389 321.852ZM282.703 316.1C282.862 316.184 283.036 316.227 283.212 316.227C283.389 316.227 283.563 316.184 283.721 316.1L290.089 312.157C290.367 311.987 290.353 311.705 290.089 311.535L282.73 306.984C282.573 306.898 282.398 306.852 282.221 306.852C282.044 306.852 281.87 306.898 281.713 306.984L275.331 310.927C275.067 311.083 275.08 311.366 275.331 311.549L282.703 316.1ZM330.598 283.185C330.757 283.268 330.931 283.311 331.107 283.311C331.284 283.311 331.458 283.268 331.616 283.185L337.997 279.256C338.262 279.086 338.248 278.803 337.997 278.62L336.029 277.404C335.871 277.321 335.696 277.277 335.52 277.277C335.344 277.277 335.17 277.321 335.011 277.404L328.643 281.333C328.366 281.503 328.392 281.785 328.643 281.969L330.598 283.185ZM358.556 265.914C358.711 266.001 358.883 266.046 359.058 266.046C359.233 266.046 359.405 266.001 359.56 265.914L365.942 261.971C366.206 261.801 366.193 261.533 365.942 261.349L363.986 260.134C363.829 260.047 363.655 260.002 363.478 260.002C363.301 260.002 363.126 260.047 362.969 260.134L356.587 264.063C356.323 264.232 356.336 264.515 356.587 264.699L358.556 265.914ZM374.028 275.482C374.186 275.566 374.36 275.609 374.536 275.609C374.713 275.609 374.887 275.566 375.045 275.482L381.427 271.539C381.691 271.369 381.678 271.087 381.427 270.917L374.054 266.352C373.896 266.269 373.722 266.225 373.545 266.225C373.369 266.225 373.195 266.269 373.037 266.352L366.668 270.281C366.391 270.451 366.417 270.733 366.668 270.917L374.028 275.482ZM397.321 300.766L403.703 296.823C403.967 296.667 403.954 296.385 403.703 296.201L396.33 291.65C396.172 291.567 395.998 291.523 395.822 291.523C395.645 291.523 395.471 291.567 395.313 291.65L388.944 295.593C388.667 295.763 388.68 296.045 388.944 296.215L396.317 300.766C396.473 300.85 396.645 300.894 396.819 300.894C396.994 300.894 397.166 300.85 397.321 300.766ZM339.913 277.432C340.071 277.516 340.245 277.559 340.422 277.559C340.598 277.559 340.772 277.516 340.931 277.432L347.312 273.503C347.576 273.334 347.563 273.051 347.312 272.867L345.344 271.652C345.185 271.569 345.011 271.525 344.835 271.525C344.658 271.525 344.484 271.569 344.326 271.652L337.958 275.581C337.694 275.751 337.707 276.033 337.958 276.217L339.913 277.432ZM264.074 327.604C264.231 327.691 264.406 327.736 264.583 327.736C264.76 327.736 264.934 327.691 265.091 327.604L271.46 323.661C271.724 323.492 271.711 323.223 271.46 323.039L264.087 318.489C263.93 318.402 263.755 318.357 263.578 318.357C263.401 318.357 263.227 318.402 263.07 318.489L256.701 322.432C256.437 322.601 256.45 322.87 256.701 323.053L264.074 327.604Z" fill="#455A64"/>
<path d="M301.954 389.549L371.716 346.458L414.656 372.971L344.881 416.062L301.954 389.549Z" fill="#263238"/>
<path d="M146.88 172.411L354.79 44.0134C358.846 41.4977 362.176 43.5611 362.176 48.5783V220.816C362.109 222.09 361.764 223.329 361.167 224.434C360.57 225.539 359.739 226.478 358.741 227.176L145.558 358.838C143.669 359.997 142.123 359.05 142.123 356.718V181.216C142.218 179.453 142.698 177.738 143.524 176.209C144.35 174.68 145.499 173.379 146.88 172.411Z" fill="#F5F5F5"/>
<path d="M362.242 52.705V48.5782C362.242 43.561 358.912 41.5118 354.856 44.0133L146.88 172.411C145.499 173.379 144.35 174.68 143.524 176.209C142.698 177.738 142.218 179.453 142.123 181.216V188.607L362.242 52.705Z" fill="#F03E3D"/>
<path d="M331.219 62.1037C330.477 62.6204 329.859 63.3172 329.416 64.1374C328.973 64.9576 328.717 65.8781 328.669 66.8241C328.669 68.5624 329.805 69.2691 331.219 68.3928C331.958 67.8776 332.574 67.1827 333.015 66.3648C333.455 65.547 333.709 64.6293 333.756 63.6866C333.756 61.9482 332.619 61.2416 331.219 62.1037Z" fill="white"/>
<path d="M341.313 55.8703C340.573 56.3886 339.958 57.0861 339.517 57.9062C339.077 58.7264 338.823 59.646 338.776 60.5907C338.776 62.3291 339.913 63.0216 341.313 62.1595C342.055 61.6427 342.673 60.9459 343.116 60.1257C343.559 59.3055 343.815 58.385 343.863 57.4391C343.863 55.7007 342.727 54.9941 341.313 55.8703Z" fill="white"/>
<path d="M351.421 49.6239C350.681 50.1432 350.065 50.8406 349.622 51.6603C349.179 52.48 348.922 53.3992 348.871 54.3443C348.871 56.0827 350.021 56.7893 351.421 55.9131C352.162 55.3986 352.78 54.7042 353.223 53.8864C353.666 53.0686 353.922 52.1506 353.971 51.2068C353.971 49.4685 352.822 48.7618 351.421 49.6239Z" fill="white"/>
<path d="M193.464 272.934L185.374 267.938L165.562 304.644L173.652 309.64L193.464 272.934Z" fill="#37474F"/>
<path d="M193.48 272.923L189.44 270.428L169.628 307.134L173.668 309.629L193.48 272.923Z" fill="#263238"/>
<path d="M143.842 376.32C140.155 383.175 122.702 372.293 126.375 365.537L171.892 289.601C172.014 289.395 172.206 289.248 172.428 289.19C172.649 289.132 172.883 289.168 173.081 289.29L182.224 294.943C182.421 295.062 182.567 295.259 182.631 295.491C182.695 295.723 182.672 295.972 182.567 296.187L143.842 376.32Z" fill="#11B5E4"/>
<path opacity="0.1" d="M143.842 376.321L182.554 296.187C182.659 295.972 182.681 295.723 182.617 295.491C182.553 295.259 182.407 295.062 182.21 294.943L178.048 292.371L133.668 376.759C137.711 378.893 142.177 379.416 143.842 376.321Z" fill="black"/>
<path d="M277.683 197.553C277.683 196.974 277.683 196.408 277.604 195.843C277.524 195.278 277.604 194.727 277.485 194.175C277.366 193.624 277.485 193.441 277.379 193.073C277.287 192.112 277.155 191.165 277.009 190.246C276.943 189.837 276.877 189.413 276.798 189.003C276.718 188.593 276.652 188.225 276.573 187.844C276.349 186.798 276.111 185.78 275.833 184.805C275.688 184.339 275.556 183.873 275.41 183.392C275.383 183.324 275.36 183.253 275.344 183.18C275.186 182.728 275.041 182.29 274.882 181.866C274.723 181.442 274.512 180.876 274.301 180.452C274.089 180.028 274.01 179.76 273.838 179.421C273.742 179.166 273.628 178.92 273.495 178.686C273.363 178.389 273.217 178.092 273.059 177.81C272.9 177.527 272.993 177.668 272.953 177.612C272.913 177.555 272.675 177.103 272.53 176.848C272.385 176.594 272.332 176.523 272.239 176.368C271.562 175.227 270.803 174.145 269.967 173.132L269.544 172.623L269.187 172.227C269.042 172.057 268.884 171.902 268.725 171.732C268.31 171.266 267.869 170.827 267.404 170.418C267.179 170.206 266.941 170.008 266.703 169.824L265.977 169.259C265.599 168.963 265.207 168.689 264.801 168.439L264.484 168.227H264.418L245.696 156.667L245.59 156.596C241.998 154.453 237.943 153.357 233.831 153.416C227.7 153.416 220.777 155.564 213.444 160.087C188.261 175.633 167.835 213.481 167.835 244.602C167.835 260.148 172.909 271.03 181.113 276.146H181.193L199.928 287.693H200.007L200.232 287.82C200.583 288.042 200.945 288.245 201.315 288.428C201.764 288.668 202.227 288.88 202.636 289.078C203.046 289.276 203.469 289.431 203.892 289.573L204.565 289.785C204.801 289.881 205.045 289.957 205.292 290.011C205.536 290.09 205.782 290.156 206.032 290.209C206.21 290.264 206.391 290.307 206.574 290.336C206.891 290.406 207.234 290.477 207.565 290.519C207.639 290.533 207.715 290.533 207.789 290.519C208.186 290.595 208.582 290.651 208.978 290.689C215.77 291.452 223.671 289.403 232.127 284.188C257.323 268.642 277.749 230.78 277.749 199.673C277.683 199.023 277.683 198.288 277.683 197.553ZM247.123 175.548C248.112 179.415 248.597 183.411 248.563 187.42C248.563 214.866 229.788 249.605 207.604 263.37C204.362 265.432 200.86 266.988 197.206 267.992C196.222 264.118 195.738 260.119 195.766 256.106C195.766 228.66 214.541 193.921 236.725 180.156C239.955 178.101 243.443 176.55 247.083 175.548H247.123Z" fill="#11B5E4"/>
<path opacity="0.1" d="M199.161 287.297L180.968 276.076C172.763 270.946 167.689 260.035 167.689 244.545C167.689 230.667 171.759 215.46 178.484 201.497L197.219 213.029C190.481 226.992 186.425 242.199 186.425 256.078C186.425 271.285 191.26 282.04 199.161 287.297Z" fill="black"/>
<path opacity="0.4" d="M277.684 197.553C277.684 196.974 277.684 196.409 277.604 195.843C277.525 195.278 277.604 194.727 277.486 194.176C277.367 193.624 277.486 193.441 277.38 193.073C277.287 192.112 277.155 191.165 277.01 190.247C276.944 189.837 276.878 189.413 276.798 189.003C276.719 188.593 276.653 188.226 276.574 187.844C276.349 186.798 276.111 185.781 275.834 184.806C275.689 184.339 275.557 183.873 275.411 183.392C275.383 183.324 275.361 183.253 275.345 183.18C275.187 182.728 275.041 182.29 274.883 181.866C274.724 181.442 274.513 180.877 274.301 180.453C274.09 180.029 274.011 179.76 273.839 179.421C273.743 179.166 273.628 178.921 273.495 178.686C273.363 178.389 273.218 178.092 273.059 177.81C272.901 177.527 272.993 177.668 272.954 177.612C272.914 177.555 272.676 177.103 272.531 176.849C272.386 176.594 272.333 176.524 272.24 176.368C271.563 175.227 270.803 174.145 269.968 173.132L269.545 172.623L269.188 172.227C269.043 172.058 268.884 171.902 268.726 171.733C268.311 171.266 267.87 170.827 267.404 170.418C267.18 170.206 266.942 170.008 266.704 169.825L265.978 169.259C265.6 168.963 265.207 168.69 264.802 168.44C256.517 163.055 244.983 163.691 232.154 171.591C206.958 187.137 186.531 224.985 186.531 256.106C186.531 271.864 191.816 282.874 200.206 287.877C200.557 288.099 200.919 288.302 201.29 288.485C201.739 288.725 202.201 288.937 202.611 289.135C203.02 289.333 203.443 289.488 203.866 289.629L204.54 289.841C204.776 289.938 205.019 290.014 205.266 290.067C205.51 290.147 205.757 290.213 206.006 290.265C206.184 290.321 206.365 290.364 206.548 290.393C206.865 290.463 207.209 290.534 207.539 290.576C207.613 290.59 207.689 290.59 207.764 290.576C208.16 290.652 208.556 290.708 208.953 290.746C215.744 291.509 223.645 289.46 232.101 284.245C257.297 268.699 277.723 230.836 277.723 199.73C277.684 199.023 277.684 198.288 277.684 197.553ZM227.477 275.723C221.822 279.213 216.378 281.051 211.727 281.051C202.994 281.051 198.977 274.677 197.194 267.992C196.21 264.119 195.725 260.12 195.754 256.106C195.754 228.66 214.528 193.921 236.712 180.156C239.955 178.098 243.457 176.546 247.11 175.548C248.84 175.09 250.613 174.848 252.395 174.828C266.836 174.828 268.382 192.268 268.382 199.772C268.435 227.162 249.66 261.999 227.477 275.723Z" fill="white"/>
<path opacity="0.1" d="M268.435 199.772C268.435 227.218 249.673 261.957 227.476 275.722C221.821 279.213 216.378 281.05 211.727 281.05C202.994 281.05 198.977 274.676 197.193 267.992C200.847 266.988 204.349 265.432 207.592 263.37C229.815 249.647 248.55 214.866 248.55 187.42C248.584 183.411 248.099 179.415 247.11 175.548C248.839 175.09 250.613 174.848 252.395 174.827C266.876 174.87 268.435 192.267 268.435 199.772Z" fill="black"/>
<path opacity="0.7" d="M260.507 194.981C260.507 222.427 241.745 257.166 219.549 270.931C213.894 274.422 208.45 276.259 203.799 276.259C202.874 276.262 201.951 276.181 201.038 276.019C199.253 273.66 197.952 270.924 197.22 267.992C196.236 264.118 195.751 260.119 195.779 256.106C195.779 228.66 214.554 193.921 236.738 180.156C239.981 178.098 243.483 176.546 247.136 175.548C248.866 175.09 250.639 174.848 252.421 174.827C253.351 174.825 254.279 174.905 255.196 175.068C259.767 180.82 260.507 190.049 260.507 194.981Z" fill="white"/>
<path d="M292.441 166.391V197.681C292.441 200.027 293.987 200.974 295.877 199.801L487.589 81.4094C488.587 80.7115 489.418 79.7722 490.015 78.6675C490.612 77.5628 490.957 76.3235 491.024 75.0496V43.717C491.024 41.3709 489.478 40.424 487.589 41.597L295.877 159.988C294.874 160.691 294.04 161.638 293.443 162.75C292.846 163.862 292.503 165.11 292.441 166.391Z" fill="#E6E6E6"/>
<path d="M295.877 159.988L330.017 138.916V178.686L295.877 199.758C293.987 200.931 292.441 199.984 292.441 197.638V166.39C292.503 165.109 292.846 163.862 293.443 162.749C294.04 161.637 294.874 160.691 295.877 159.988Z" fill="#BA68C8"/>
<path d="M318.72 156.272C316.567 154.943 313.845 155.155 311.057 156.879C308.408 158.695 306.204 161.163 304.629 164.077C303.055 166.99 302.155 170.265 302.007 173.627C301.914 175.806 302.556 177.948 303.817 179.662L300.144 186.389C299.904 186.87 299.846 187.431 299.982 187.957C300.117 188.482 300.435 188.933 300.87 189.215C301.173 189.398 301.514 189.495 301.861 189.498C302.209 189.498 302.551 189.401 302.853 189.214C303.155 189.028 303.405 188.761 303.579 188.438L307.212 181.711C307.605 181.79 308.002 181.832 308.402 181.838C310.023 181.807 311.609 181.319 312.999 180.425C315.644 178.605 317.844 176.136 319.416 173.223C320.988 170.31 321.886 167.037 322.037 163.677C322.076 160.243 320.887 157.614 318.72 156.272ZM311.057 176.764C310.593 177.298 309.973 177.648 309.299 177.757C308.625 177.866 307.937 177.726 307.346 177.362C306.755 176.998 306.298 176.43 306.048 175.752C305.798 175.073 305.771 174.324 305.97 173.627C306.124 171.012 306.843 168.471 308.069 166.202C309.296 163.934 310.997 162.001 313.039 160.554C313.832 160.014 314.743 159.707 315.682 159.664C316.069 159.648 316.452 159.746 316.791 159.946C317.289 160.401 317.67 160.983 317.901 161.637C318.132 162.292 318.205 162.999 318.113 163.691C317.96 166.305 317.244 168.846 316.02 171.114C314.796 173.382 313.097 175.316 311.057 176.764Z" fill="white"/>
</svg>
